<svg width="25" height="25" viewBox="0 0 25 25" fill="none" xmlns="http://www.w3.org/2000/svg">
<g clip-path="url(#clip0_560_90)">
<path d="M12.5 25C19.4036 25 25 19.4036 25 12.5C25 5.59644 19.4036 0 12.5 0C5.59644 0 0 5.59644 0 12.5C0 19.4036 5.59644 25 12.5 25Z" fill="#3A559F"/>
<path d="M16.4604 11.0199L16.209 13.1974C16.1986 13.2968 16.152 13.3889 16.0782 13.4562C16.0043 13.5235 15.9084 13.5613 15.8085 13.5625H13.5357L13.5244 20.0185C13.5251 20.095 13.4958 20.1687 13.4426 20.2237C13.3894 20.2787 13.3168 20.3106 13.2403 20.3125H10.9377C10.8994 20.3125 10.8615 20.3048 10.8263 20.2898C10.7911 20.2749 10.7592 20.2529 10.7327 20.2253C10.7062 20.1977 10.6855 20.165 10.6719 20.1293C10.6583 20.0935 10.6521 20.0553 10.6536 20.017V13.5625H8.94908C8.89554 13.5619 8.84264 13.5508 8.79339 13.5298C8.74415 13.5088 8.69952 13.4783 8.66206 13.4401C8.6246 13.4018 8.59504 13.3566 8.57507 13.3069C8.5551 13.2572 8.54511 13.2041 8.54567 13.1506L8.53715 10.973C8.5364 10.9193 8.54624 10.8659 8.5661 10.816C8.58597 10.7661 8.61548 10.7206 8.65294 10.6821C8.6904 10.6435 8.73508 10.6128 8.78443 10.5915C8.83378 10.5703 8.88683 10.559 8.94056 10.5582H10.6536V8.45597C10.6536 6.01562 12.1025 4.6875 14.2275 4.6875H15.969C16.0228 4.68806 16.076 4.69924 16.1255 4.7204C16.175 4.74156 16.2199 4.77229 16.2575 4.81083C16.2951 4.84936 16.3247 4.89494 16.3447 4.94496C16.3647 4.99497 16.3745 5.04843 16.3738 5.10227V6.93466C16.3745 6.9885 16.3647 7.04196 16.3447 7.09197C16.3247 7.14199 16.2951 7.18757 16.2575 7.2261C16.2199 7.26464 16.175 7.29537 16.1255 7.31653C16.076 7.3377 16.0228 7.34888 15.969 7.34943H14.9008C13.746 7.34943 13.5215 7.91761 13.5215 8.73864V10.5582H16.0599C16.1176 10.559 16.1745 10.5719 16.2269 10.5962C16.2793 10.6205 16.3259 10.6556 16.3637 10.6992C16.4016 10.7428 16.4298 10.7939 16.4464 10.8492C16.4631 10.9045 16.4679 10.9626 16.4604 11.0199Z" fill="white"/>
</g>
<defs>
<clipPath id="clip0_560_90">
<rect width="25" height="25" fill="white"/>
</clipPath>
</defs>
</svg>
