<svg width="25" height="25" viewBox="0 0 25 25" fill="none" xmlns="http://www.w3.org/2000/svg">
<g clip-path="url(#clip0_560_96)">
<path d="M25 12.5C25 5.59644 19.4036 0 12.5 0C5.59644 0 0 5.59644 0 12.5C0 19.4036 5.59644 25 12.5 25C19.4036 25 25 19.4036 25 12.5Z" fill="url(#paint0_linear_560_96)"/>
<path d="M21.9078 4.27631C20.0854 7.62171 17.5081 11.0724 14.2877 14.2928C11.0673 17.5132 7.61664 20.0855 4.27618 21.9079C4.06675 21.7259 3.86335 21.5362 3.66598 21.3388C2.47298 20.1856 1.5215 18.8065 0.867025 17.2818C0.212548 15.7571 -0.131829 14.1174 -0.146027 12.4582C-0.160224 10.799 0.156042 9.15362 0.784331 7.61794C1.41262 6.08227 2.34036 4.68704 3.51345 3.51363C4.68654 2.34021 6.0815 1.41208 7.617 0.783364C9.1525 0.154646 10.7978 -0.162079 12.457 -0.148345C14.1162 -0.13461 15.756 0.209309 17.2809 0.86336C18.8058 1.51741 20.1852 2.4685 21.3387 3.66118C21.536 3.85855 21.7257 4.06359 21.9078 4.27631Z" fill="white" fill-opacity="0.0627451"/>
<path d="M15.4604 5.92105H9.53932C8.57965 5.92105 7.65929 6.30228 6.98071 6.98086C6.30212 7.65945 5.9209 8.57981 5.9209 9.53947V15.4605C5.9209 16.4202 6.30212 17.3406 6.98071 18.0191C7.65929 18.6977 8.57965 19.0789 9.53932 19.0789H15.4604C16.42 19.0789 17.3404 18.6977 18.019 18.0191C18.6976 17.3406 19.0788 16.4202 19.0788 15.4605V9.53947C19.0788 8.57981 18.6976 7.65945 18.019 6.98086C17.3404 6.30228 16.42 5.92105 15.4604 5.92105ZM17.9275 14.9408C17.9275 15.7329 17.6128 16.4927 17.0527 17.0528C16.4925 17.6129 15.7328 17.9276 14.9406 17.9276H10.0591C9.2669 17.9276 8.50718 17.6129 7.94704 17.0528C7.3869 16.4927 7.07221 15.7329 7.07221 14.9408V10.0592C7.07221 9.26705 7.3869 8.50733 7.94704 7.94719C8.50718 7.38705 9.2669 7.07237 10.0591 7.07237H14.9406C15.7328 7.07237 16.4925 7.38705 17.0527 7.94719C17.6128 8.50733 17.9275 9.26705 17.9275 10.0592V14.9408Z" fill="white"/>
<path d="M14.8997 10.125L14.8684 10.0937L14.8421 10.0674C14.2202 9.4477 13.378 9.09991 12.5 9.10032C12.0567 9.10334 11.6182 9.19368 11.2098 9.36618C10.8014 9.53868 10.4309 9.78997 10.1197 10.1057C9.80838 10.4214 9.56235 10.7953 9.39564 11.2062C9.22892 11.617 9.14479 12.0566 9.14804 12.5C9.14737 13.3998 9.50204 14.2634 10.1349 14.903C10.4449 15.2167 10.8142 15.4656 11.2214 15.635C11.6287 15.8044 12.0655 15.8911 12.5066 15.8898C13.1682 15.8759 13.8114 15.6698 14.3579 15.2967C14.9043 14.9235 15.3304 14.3994 15.5841 13.7882C15.8378 13.1771 15.9082 12.5053 15.7866 11.8548C15.6651 11.2044 15.3569 10.6033 14.8997 10.125ZM12.5 14.7303C12.0576 14.7365 11.6234 14.6109 11.2525 14.3697C10.8817 14.1284 10.591 13.7823 10.4174 13.3754C10.2438 12.9684 10.1951 12.519 10.2776 12.0844C10.3601 11.6497 10.57 11.2494 10.8806 10.9343C11.1913 10.6193 11.5886 10.4038 12.022 10.3151C12.4555 10.2265 12.9055 10.2688 13.3149 10.4367C13.7242 10.6045 14.0744 10.8903 14.3209 11.2577C14.5674 11.6252 14.699 12.0576 14.699 12.5C14.7012 12.7909 14.646 13.0793 14.5367 13.3488C14.4273 13.6184 14.2659 13.8637 14.0617 14.0708C13.8575 14.2779 13.6144 14.4428 13.3465 14.5559C13.0785 14.6691 12.7909 14.7283 12.5 14.7303ZM16.8471 8.94407C16.8479 9.04962 16.828 9.15429 16.7883 9.25211C16.7487 9.34993 16.6901 9.43897 16.616 9.51413C16.542 9.5893 16.4538 9.64911 16.3565 9.69015C16.2593 9.73118 16.1549 9.75264 16.0494 9.75328C15.9447 9.75324 15.8411 9.73242 15.7445 9.69205C15.648 9.65168 15.5604 9.59255 15.4869 9.51809C15.3754 9.40503 15.2996 9.26176 15.2689 9.10604C15.2381 8.95031 15.2537 8.78899 15.3138 8.64206C15.3739 8.49513 15.4757 8.36906 15.6068 8.27948C15.7378 8.18991 15.8923 8.14077 16.051 8.13815C16.2368 8.13812 16.4166 8.20331 16.5592 8.32236L16.5757 8.33881C16.6022 8.3604 16.6264 8.38465 16.648 8.41118L16.6661 8.43092C16.7839 8.57596 16.8478 8.75727 16.8471 8.94407Z" fill="white"/>
</g>
<defs>
<linearGradient id="paint0_linear_560_96" x1="3.66118" y1="3.66118" x2="21.3388" y2="21.3388" gradientUnits="userSpaceOnUse">
<stop stop-color="#FAE100"/>
<stop offset="0.15" stop-color="#FCB720"/>
<stop offset="0.3" stop-color="#FF7950"/>
<stop offset="0.5" stop-color="#FF1C74"/>
<stop offset="1" stop-color="#6C1CD1"/>
</linearGradient>
<clipPath id="clip0_560_96">
<rect width="25" height="25" fill="white"/>
</clipPath>
</defs>
</svg>
