<svg width="25" height="25" viewBox="0 0 25 25" fill="none" xmlns="http://www.w3.org/2000/svg">
<g clip-path="url(#clip0_560_110)">
<path d="M12.5 24.9998C19.4036 24.9998 25 19.4033 25 12.4998C25 5.59623 19.4036 -0.000213623 12.5 -0.000213623C5.59644 -0.000213623 0 5.59623 0 12.4998C0 19.4033 5.59644 24.9998 12.5 24.9998Z" fill="#007AB9"/>
<path d="M19.9685 13.5056V18.6591H16.9806V13.851C16.9806 12.6437 16.5492 11.8193 15.4674 11.8193C14.6419 11.8193 14.1514 12.3743 13.9348 12.9118C13.8562 13.1039 13.8359 13.3706 13.8359 13.64V18.6589H10.8478C10.8478 18.6589 10.8879 10.5155 10.8478 9.67259H13.8361V10.946C13.8301 10.9561 13.8216 10.9659 13.8163 10.9754H13.8361V10.946C14.2332 10.335 14.9413 9.46157 16.529 9.46157C18.4947 9.46157 19.9685 10.7459 19.9685 13.5056ZM7.72204 5.34088C6.69995 5.34088 6.03125 6.01181 6.03125 6.8933C6.03125 7.75607 6.68056 8.44638 7.68282 8.44638H7.70221C8.74436 8.44638 9.39233 7.75607 9.39233 6.8933C9.3725 6.01181 8.74436 5.34088 7.72204 5.34088ZM6.20884 18.6591H9.1958V9.67259H6.20884V18.6591Z" fill="#F1F2F2"/>
</g>
<defs>
<clipPath id="clip0_560_110">
<rect width="25" height="25" fill="white"/>
</clipPath>
</defs>
</svg>
