<svg width="25" height="25" viewBox="0 0 25 25" fill="none" xmlns="http://www.w3.org/2000/svg">
<g clip-path="url(#clip0_560_105)">
<path fill-rule="evenodd" clip-rule="evenodd" d="M18.75 12.9719C18.75 13.9836 18.625 14.9953 18.625 14.9953C18.625 14.9953 18.5031 15.8562 18.1281 16.2359C17.6531 16.7336 17.1203 16.7359 16.8758 16.7648C15.1266 16.8914 12.5 16.8953 12.5 16.8953C12.5 16.8953 9.25 16.8656 8.25 16.7703C7.97188 16.718 7.34687 16.7336 6.87187 16.2359C6.49687 15.8562 6.375 14.9953 6.375 14.9953C6.375 14.9953 6.25 13.9836 6.25 12.9719V12.0234C6.25 11.0117 6.375 10.0008 6.375 10.0008C6.375 10.0008 6.49687 9.13906 6.87187 8.75937C7.34687 8.26172 7.87969 8.25937 8.12422 8.23047C9.87344 8.10391 12.4977 8.10391 12.4977 8.10391H12.5023C12.5023 8.10391 15.1266 8.10391 16.8758 8.23047C17.1203 8.25937 17.6531 8.26172 18.1281 8.75937C18.5031 9.13906 18.625 10.0008 18.625 10.0008C18.625 10.0008 18.75 11.0117 18.75 12.0234V12.9719ZM12.5 0C5.59609 0 0 5.59609 0 12.5C0 19.4031 5.59609 25 12.5 25C19.4039 25 25 19.4031 25 12.5C25 5.59609 19.4039 0 12.5 0Z" fill="#EA412C"/>
<path fill-rule="evenodd" clip-rule="evenodd" d="M11.2093 14.1211L14.5866 12.3711L11.2085 10.6086L11.2093 14.1211Z" fill="#EA412C"/>
</g>
<defs>
<clipPath id="clip0_560_105">
<rect width="25" height="25" fill="white"/>
</clipPath>
</defs>
</svg>
