<svg width="20" height="20" viewBox="0 0 20 20" fill="currentColor" xmlns="http://www.w3.org/2000/svg">
<g clip-path="url(#clip0_560_84)">
<path d="M19.4216 9.05792C19.4216 9.36086 19.301 9.6638 19.0598 9.88733L13.8569 14.7109C13.4199 15.1163 12.8662 15.3736 12.2745 15.4462L7.47455 16.0256L6.90396 16.5579L3.56279 12.9579L5.50396 11.1579C6.18104 10.531 7.0756 10.1924 7.99808 10.2138L12.4069 10.3138C13.0481 10.3344 13.5687 10.8432 13.5981 11.4873V11.502C13.5069 12.0079 13.0981 12.5167 12.401 12.6285L9.14808 12.7344C9.06573 12.7373 9.00102 12.805 9.00396 12.8873C9.0069 12.9667 9.07161 13.0285 9.15102 13.0285H9.1569L12.4304 12.9197C13.2628 12.7903 13.751 12.1991 13.8775 11.5991L17.5187 8.22557C17.9775 7.7991 18.6951 7.82851 19.1216 8.28733C19.3216 8.50498 19.4216 8.78145 19.4216 9.05792ZM6.95161 17.0447L3.09455 12.8844C3.05 12.8364 2.99642 12.7976 2.93688 12.7702C2.87734 12.7429 2.813 12.7276 2.74753 12.7251C2.68207 12.7227 2.61676 12.7331 2.55533 12.7559C2.49391 12.7787 2.43758 12.8134 2.38955 12.8579L0.73808 14.3894C0.64116 14.4794 0.583929 14.6041 0.578965 14.7363C0.574002 14.8684 0.621712 14.9971 0.711609 15.0941L4.56837 19.2544C4.75573 19.4564 5.07131 19.4685 5.27337 19.2809L6.92514 17.7494C7.1272 17.5623 7.13926 17.2464 6.95161 17.0447ZM5.44779 18.3491C5.3877 18.4051 5.31708 18.4487 5.24004 18.4772C5.16299 18.5057 5.08105 18.5187 4.99896 18.5153C4.83342 18.5088 4.6772 18.437 4.56455 18.3155C4.4519 18.1941 4.39204 18.0329 4.39808 17.8673C4.41131 17.5229 4.70396 17.2576 5.04631 17.2662C5.16973 17.2711 5.28893 17.3124 5.3889 17.3849C5.48887 17.4575 5.56512 17.558 5.60806 17.6738C5.65099 17.7896 5.65868 17.9155 5.63016 18.0357C5.60164 18.1559 5.53818 18.2649 5.44779 18.3491Z" fill="currentColor"/>
<path d="M5.03532 17.56H5.02267C4.8462 17.56 4.69914 17.7003 4.69208 17.8782C4.68987 17.9436 4.70702 18.0081 4.74137 18.0637C4.77573 18.1193 4.82575 18.1635 4.88516 18.1907C4.94456 18.218 5.0107 18.2271 5.07526 18.2168C5.13981 18.2066 5.1999 18.1775 5.24797 18.1332C5.29575 18.0886 5.32929 18.0309 5.34436 17.9673C5.35943 17.9037 5.35536 17.8371 5.33267 17.7758C5.30998 17.7145 5.26967 17.6613 5.21681 17.6228C5.16396 17.5844 5.10092 17.5624 5.03561 17.5597L5.03532 17.56ZM15.3277 5.04852C15.3204 5.05921 15.3121 5.06907 15.3027 5.07794C15.2926 5.08895 15.2814 5.09882 15.2691 5.10735L11.903 8.47705C11.8476 8.53243 11.7819 8.57636 11.7095 8.60633C11.6372 8.6363 11.5597 8.65173 11.4813 8.65173C11.403 8.65173 11.3255 8.6363 11.2532 8.60633C11.1808 8.57636 11.1151 8.53243 11.0597 8.47705L7.70591 5.12441L7.68091 5.09911C7.66996 5.08899 7.66011 5.07775 7.6515 5.06558C6.42856 3.80676 6.73267 1.61235 8.54767 0.812347C9.55179 0.3697 10.745 0.647347 11.4609 1.47911L11.4812 1.50382C11.5009 1.47999 11.5215 1.45705 11.543 1.4347C12.3106 0.631759 13.4921 0.34117 14.4971 0.814112C16.2639 1.64499 16.5406 3.80029 15.3274 5.04882L15.3277 5.04852Z" fill="currentColor"/>
</g>
<defs>
<clipPath id="clip0_560_84">
<rect width="20" height="20" fill="currentColor"/>
</clipPath>
</defs>
</svg>
