<svg width="20" height="20" viewBox="0 0 20 20" fill="none" xmlns="http://www.w3.org/2000/svg">
<g clip-path="url(#clip0_560_76)">
<path d="M5.52204 4.5515C5.23361 4.26282 4.76564 4.26282 4.4772 4.5515C3.40626 5.62243 2.8799 7.11431 3.03286 8.64486C3.07103 9.02614 3.39224 9.31036 3.76736 9.31036C3.79201 9.31036 3.81685 9.30911 3.8415 9.30665C4.24767 9.26603 4.54396 8.90368 4.50333 8.49778C4.39447 7.41009 4.76591 6.35247 5.52204 5.5963C5.81072 5.3079 5.81072 4.83989 5.52204 4.5515Z" fill="#333333"/>
<path d="M8.44828 0C3.78988 0 0 3.78988 0 8.44828C0 13.1067 3.78988 16.8966 8.44828 16.8966C13.1067 16.8966 16.8966 13.1067 16.8966 8.44828C16.8966 3.78988 13.1066 0 8.44828 0ZM8.44828 15.4187C4.60469 15.4187 1.47785 12.2919 1.47785 8.44828C1.47785 4.60469 4.60469 1.47785 8.44828 1.47785C12.2916 1.47785 15.4187 4.60469 15.4187 8.44828C15.4187 12.2919 12.2919 15.4187 8.44828 15.4187Z" fill="#333333"/>
<path d="M19.7837 18.7387L14.4142 13.3692C14.1255 13.0805 13.658 13.0805 13.3693 13.3692C13.0807 13.6577 13.0807 14.1256 13.3693 14.4141L18.7388 19.7835C18.8073 19.8522 18.8888 19.9068 18.9784 19.9439C19.0681 19.9811 19.1642 20.0001 19.2613 20C19.4504 20 19.6393 19.9278 19.7837 19.7835C20.0723 19.4951 20.0723 19.0271 19.7837 18.7387Z" fill="#333333"/>
</g>
<defs>
<clipPath id="clip0_560_76">
<rect width="20" height="20" fill="white"/>
</clipPath>
</defs>
</svg>
