<svg width="15" height="15" viewBox="0 0 15 15" fill="none" xmlns="http://www.w3.org/2000/svg">
<path d="M14.8679 2.98011L10.3187 7.5L14.8679 12.0199C14.9501 11.848 15 11.658 15 11.4551V3.54492C15 3.34198 14.9501 3.15199 14.8679 2.98011ZM13.6816 2.22656H1.31836C1.11542 2.22656 0.92543 2.27646 0.753545 2.35869L6.56789 8.14374C7.08199 8.65784 7.91801 8.65784 8.43211 8.14374L14.2465 2.35869C14.0746 2.27646 13.8846 2.22656 13.6816 2.22656ZM0.132129 2.98011C0.0498926 3.15199 0 3.34198 0 3.54492V11.4551C0 11.658 0.0498926 11.848 0.132129 12.0199L4.68132 7.5L0.132129 2.98011Z" fill="#FF301C"/>
<path d="M9.69714 8.12158L9.0534 8.76532C8.19679 9.62193 6.80293 9.62193 5.94632 8.76532L5.30261 8.12158L0.753418 12.6415C0.925303 12.7237 1.11529 12.7736 1.31823 12.7736H13.6815C13.8845 12.7736 14.0744 12.7237 14.2463 12.6415L9.69714 8.12158Z" fill="#FF301C"/>
</svg>
