<svg width="15" height="15" viewBox="0 0 15 15" fill="none" xmlns="http://www.w3.org/2000/svg">
<path d="M11.4038 9.9228C10.9138 9.43899 10.302 9.43899 9.81506 9.9228C9.44362 10.2911 9.07218 10.6594 8.70698 11.034C8.60709 11.137 8.52281 11.1589 8.40108 11.0902C8.16074 10.9591 7.90479 10.853 7.67381 10.7094C6.59694 10.032 5.69486 9.16119 4.8958 8.18108C4.49938 7.69415 4.14667 7.17288 3.90008 6.58607C3.85014 6.46746 3.85951 6.38942 3.95627 6.29266C4.32771 5.9337 4.68979 5.56538 5.05499 5.19706C5.56377 4.68516 5.56377 4.08586 5.05186 3.57083C4.76158 3.27743 4.47129 2.99026 4.18101 2.69685C3.88135 2.3972 3.58483 2.09443 3.28205 1.7979C2.792 1.32033 2.18021 1.32033 1.69328 1.80102C1.31872 2.16934 0.959764 2.54703 0.578958 2.90911C0.226244 3.24309 0.0483268 3.65199 0.0108705 4.12956C-0.0484353 4.90678 0.141968 5.6403 0.410404 6.35509C0.959764 7.83461 1.79629 9.1487 2.81073 10.3535C4.18101 11.9829 5.8166 13.272 7.72999 14.2022C8.59149 14.6204 9.48419 14.9419 10.4549 14.995C11.1229 15.0325 11.7035 14.8639 12.1686 14.3426C12.4869 13.9868 12.8459 13.6622 13.183 13.322C13.6824 12.8163 13.6855 12.2045 13.1892 11.7051C12.5962 11.1089 12 10.5159 11.4038 9.9228ZM10.8076 7.43508L11.9594 7.23843C11.7784 6.18029 11.279 5.22203 10.5205 4.46042C9.7183 3.65823 8.70385 3.15257 7.58641 2.9965L7.4241 4.15453C8.28871 4.27626 9.0753 4.66643 9.69645 5.28758C10.2833 5.8744 10.6672 6.61728 10.8076 7.43508ZM12.6087 2.42842C11.279 1.09872 9.59656 0.259073 7.73935 0L7.57704 1.15802C9.18142 1.38276 10.636 2.11004 11.7846 3.25558C12.874 4.34493 13.5888 5.72145 13.8479 7.23531L14.9996 7.03866C14.6969 5.28446 13.8697 3.69257 12.6087 2.42842Z" fill="#FF301C"/>
</svg>
