<svg width="15" height="15" viewBox="0 0 15 15" fill="none" xmlns="http://www.w3.org/2000/svg">
<path d="M12.8033 2.19671C11.3867 0.780117 9.50332 0 7.5 0C5.49668 0 3.61324 0.780117 2.19671 2.19668C0.780117 3.61324 0 5.49668 0 7.5C0 9.50332 0.780117 11.3867 2.19671 12.8033C3.61324 14.2199 5.49668 15 7.5 15C9.50335 15 11.3867 14.2199 12.8033 12.8033C14.2199 11.3867 15 9.50329 15 7.49997C15 5.49665 14.2199 3.61324 12.8033 2.19671ZM2.81883 2.81883C3.47833 2.15933 4.25256 1.6563 5.09643 1.32797C4.87166 1.60857 4.66134 1.9311 4.46859 2.29386C4.24474 2.71515 4.05158 3.17783 3.89071 3.67204C3.33343 3.57955 2.81707 3.46582 2.35576 3.33234C2.50124 3.15337 2.6558 2.98198 2.81883 2.81883ZM1.82312 4.0894C2.36268 4.26217 2.97973 4.40786 3.65303 4.52326C3.46553 5.31914 3.35517 6.17558 3.32883 7.06011H0.894609C0.96375 5.99859 1.28256 4.98551 1.82312 4.0894ZM1.77521 10.8292C1.26384 9.95329 0.96167 8.96944 0.89458 7.93989H3.3305C3.35927 8.79914 3.46743 9.63123 3.6486 10.4063C2.96147 10.5177 2.32893 10.6597 1.77521 10.8292ZM2.81883 12.1812C2.63341 11.9957 2.45898 11.7995 2.29644 11.5936C2.77465 11.461 3.30926 11.3487 3.88474 11.2587C4.04675 11.7597 4.24198 12.2285 4.46856 12.655C4.67862 13.0503 4.90957 13.3977 5.15733 13.6952C4.28985 13.3676 3.49418 12.8565 2.81883 12.1812ZM7.06008 14.0073C6.39187 13.8201 5.75977 13.2099 5.24555 12.2422C5.06569 11.9037 4.90772 11.5345 4.7724 11.141C5.49691 11.0612 6.26786 11.0141 7.06008 11.003V14.0073ZM7.06008 10.1232C6.18152 10.1351 5.3252 10.1903 4.52326 10.2845C4.34637 9.55321 4.23993 8.7617 4.21072 7.93992H7.06011V10.1232H7.06008ZM7.06008 7.06008H4.20905C4.23574 6.21533 4.34388 5.40173 4.52628 4.65185C5.3231 4.75145 6.17763 4.81204 7.06008 4.82938V7.06008ZM7.06008 3.94945C6.26478 3.93343 5.49554 3.88157 4.77615 3.79696C4.91065 3.40755 5.06739 3.04204 5.24555 2.70668C5.75974 1.73895 6.39187 1.12875 7.06008 0.941572V3.94945ZM13.2046 4.13613C13.7283 5.02069 14.0374 6.01696 14.1054 7.06008H11.6712C11.6452 6.18574 11.5369 5.33892 11.3534 4.55089C12.0311 4.44144 12.6558 4.30219 13.2046 4.13613ZM12.1811 2.81883C12.3564 2.99424 12.5218 3.17919 12.6767 3.37283C12.2058 3.50142 11.6814 3.61055 11.118 3.69838C10.9554 3.19424 10.7593 2.72265 10.5314 2.29386C10.3387 1.9311 10.1284 1.60857 9.9036 1.32797C10.7474 1.6563 11.5217 2.15933 12.1811 2.81883ZM7.93992 7.93992H10.7893C10.7599 8.76809 10.652 9.5656 10.4726 10.3016C9.67591 10.2025 8.82176 10.1425 7.93992 10.1256V7.93992ZM7.93992 7.06008V4.83231C8.81897 4.82077 9.67597 4.76607 10.4787 4.67224C10.6581 5.41646 10.7645 6.22298 10.7909 7.06008H7.93992ZM7.93986 0.941572H7.93989C8.6081 1.12875 9.2402 1.73895 9.75442 2.70668C9.93542 3.04731 10.0943 3.41912 10.2302 3.81551C9.50473 3.89496 8.7329 3.94175 7.93986 3.95244V0.941572ZM7.93992 14.0073V11.0056C8.73445 11.0212 9.50312 11.0725 10.2222 11.1566C10.0881 11.5443 9.93188 11.9082 9.75445 12.2422C9.24023 13.2099 8.60812 13.8201 7.93992 14.0073ZM12.1811 12.1812C11.5058 12.8565 10.7101 13.3676 9.84264 13.6952C10.0904 13.3976 10.3213 13.0503 10.5314 12.655C10.7546 12.2349 10.9474 11.7735 11.108 11.2808C11.6782 11.375 12.2058 11.4913 12.6758 11.6283C12.5212 11.8215 12.356 12.0061 12.1811 12.1812ZM13.2013 10.8694C12.6554 10.6939 12.0295 10.5462 11.3461 10.4297C11.5305 9.64802 11.6405 8.80778 11.6696 7.93992H14.1055C14.0373 8.98518 13.727 9.98347 13.2013 10.8694Z" fill="#FF301C"/>
</svg>
